<mxfile host="app.diagrams.net" modified="2023-06-06T10:35:56.567Z" agent="Mozilla/5.0 (Windows NT 10.0; Win64; x64) AppleWebKit/537.36 (KHTML, like Gecko) Chrome/113.0.0.0 Safari/537.36 Edg/113.0.1774.57" etag="u3twbPfVZs7tWOKKfiA2" version="21.3.5" type="device">
  <diagram name="Страница 1" id="5SHM_TD0UEettc2idgga">
    <mxGraphModel dx="2004" dy="1051" grid="1" gridSize="10" guides="1" tooltips="1" connect="1" arrows="1" fold="1" page="1" pageScale="1" pageWidth="827" pageHeight="1169" math="0" shadow="0">
      <root>
        <mxCell id="0" />
        <mxCell id="1" parent="0" />
        <mxCell id="yWa1NxkDXGBS_MJ9YXGz-22" value="" style="edgeStyle=orthogonalEdgeStyle;rounded=0;orthogonalLoop=1;jettySize=auto;html=1;" edge="1" parent="1" source="yWa1NxkDXGBS_MJ9YXGz-1" target="yWa1NxkDXGBS_MJ9YXGz-21">
          <mxGeometry relative="1" as="geometry" />
        </mxCell>
        <mxCell id="yWa1NxkDXGBS_MJ9YXGz-1" value="array&lt;br&gt;current = 0&lt;br&gt;sizeArray&lt;br&gt;newArray" style="shape=parallelogram;perimeter=parallelogramPerimeter;whiteSpace=wrap;html=1;fixedSize=1;" vertex="1" parent="1">
          <mxGeometry x="350" y="210" width="120" height="60" as="geometry" />
        </mxCell>
        <mxCell id="yWa1NxkDXGBS_MJ9YXGz-2" value="Алгоритм отдельного метода для задачи" style="text;html=1;strokeColor=none;fillColor=none;align=center;verticalAlign=middle;whiteSpace=wrap;rounded=0;" vertex="1" parent="1">
          <mxGeometry x="250" y="10" width="290" height="30" as="geometry" />
        </mxCell>
        <mxCell id="yWa1NxkDXGBS_MJ9YXGz-13" value="" style="edgeStyle=orthogonalEdgeStyle;rounded=0;orthogonalLoop=1;jettySize=auto;html=1;" edge="1" parent="1" source="yWa1NxkDXGBS_MJ9YXGz-3" target="yWa1NxkDXGBS_MJ9YXGz-5">
          <mxGeometry relative="1" as="geometry" />
        </mxCell>
        <mxCell id="yWa1NxkDXGBS_MJ9YXGz-14" style="edgeStyle=orthogonalEdgeStyle;rounded=0;orthogonalLoop=1;jettySize=auto;html=1;entryX=0;entryY=0.5;entryDx=0;entryDy=0;" edge="1" parent="1" source="yWa1NxkDXGBS_MJ9YXGz-3" target="yWa1NxkDXGBS_MJ9YXGz-11">
          <mxGeometry relative="1" as="geometry" />
        </mxCell>
        <mxCell id="yWa1NxkDXGBS_MJ9YXGz-3" value="i = 0; i &amp;lt; sizeArray; 1" style="shape=hexagon;perimeter=hexagonPerimeter2;whiteSpace=wrap;html=1;fixedSize=1;" vertex="1" parent="1">
          <mxGeometry x="336" y="500" width="156" height="80" as="geometry" />
        </mxCell>
        <mxCell id="yWa1NxkDXGBS_MJ9YXGz-9" style="edgeStyle=orthogonalEdgeStyle;rounded=0;orthogonalLoop=1;jettySize=auto;html=1;entryX=0;entryY=0.5;entryDx=0;entryDy=0;" edge="1" parent="1" source="yWa1NxkDXGBS_MJ9YXGz-4" target="yWa1NxkDXGBS_MJ9YXGz-3">
          <mxGeometry relative="1" as="geometry">
            <Array as="points">
              <mxPoint x="180" y="870" />
              <mxPoint x="180" y="540" />
            </Array>
          </mxGeometry>
        </mxCell>
        <mxCell id="yWa1NxkDXGBS_MJ9YXGz-4" value="newArray[current] = array[i]&lt;br&gt;current = current + 1" style="rounded=0;whiteSpace=wrap;html=1;" vertex="1" parent="1">
          <mxGeometry x="354" y="840" width="120" height="60" as="geometry" />
        </mxCell>
        <mxCell id="yWa1NxkDXGBS_MJ9YXGz-7" value="" style="edgeStyle=orthogonalEdgeStyle;rounded=0;orthogonalLoop=1;jettySize=auto;html=1;" edge="1" parent="1" source="yWa1NxkDXGBS_MJ9YXGz-5" target="yWa1NxkDXGBS_MJ9YXGz-6">
          <mxGeometry relative="1" as="geometry" />
        </mxCell>
        <mxCell id="yWa1NxkDXGBS_MJ9YXGz-8" value="" style="edgeStyle=orthogonalEdgeStyle;rounded=0;orthogonalLoop=1;jettySize=auto;html=1;" edge="1" parent="1" source="yWa1NxkDXGBS_MJ9YXGz-5" target="yWa1NxkDXGBS_MJ9YXGz-4">
          <mxGeometry relative="1" as="geometry" />
        </mxCell>
        <mxCell id="yWa1NxkDXGBS_MJ9YXGz-5" value="array[i].Length &amp;lt;= 3" style="rhombus;whiteSpace=wrap;html=1;" vertex="1" parent="1">
          <mxGeometry x="341" y="630" width="146" height="110" as="geometry" />
        </mxCell>
        <mxCell id="yWa1NxkDXGBS_MJ9YXGz-10" style="edgeStyle=orthogonalEdgeStyle;rounded=0;orthogonalLoop=1;jettySize=auto;html=1;entryX=0;entryY=0.5;entryDx=0;entryDy=0;" edge="1" parent="1" source="yWa1NxkDXGBS_MJ9YXGz-6" target="yWa1NxkDXGBS_MJ9YXGz-3">
          <mxGeometry relative="1" as="geometry">
            <Array as="points">
              <mxPoint x="180" y="685" />
              <mxPoint x="180" y="540" />
            </Array>
          </mxGeometry>
        </mxCell>
        <mxCell id="yWa1NxkDXGBS_MJ9YXGz-6" value="" style="ellipse;whiteSpace=wrap;html=1;aspect=fixed;" vertex="1" parent="1">
          <mxGeometry x="250" y="665" width="40" height="40" as="geometry" />
        </mxCell>
        <mxCell id="yWa1NxkDXGBS_MJ9YXGz-15" value="" style="edgeStyle=orthogonalEdgeStyle;rounded=0;orthogonalLoop=1;jettySize=auto;html=1;" edge="1" parent="1" source="yWa1NxkDXGBS_MJ9YXGz-11" target="yWa1NxkDXGBS_MJ9YXGz-12">
          <mxGeometry relative="1" as="geometry" />
        </mxCell>
        <mxCell id="yWa1NxkDXGBS_MJ9YXGz-11" value="newArray" style="shape=document;whiteSpace=wrap;html=1;boundedLbl=1;" vertex="1" parent="1">
          <mxGeometry x="620" y="500" width="120" height="80" as="geometry" />
        </mxCell>
        <mxCell id="yWa1NxkDXGBS_MJ9YXGz-12" value="конец" style="ellipse;whiteSpace=wrap;html=1;" vertex="1" parent="1">
          <mxGeometry x="620" y="630" width="120" height="80" as="geometry" />
        </mxCell>
        <mxCell id="yWa1NxkDXGBS_MJ9YXGz-17" value="" style="edgeStyle=orthogonalEdgeStyle;rounded=0;orthogonalLoop=1;jettySize=auto;html=1;" edge="1" parent="1" source="yWa1NxkDXGBS_MJ9YXGz-16" target="yWa1NxkDXGBS_MJ9YXGz-1">
          <mxGeometry relative="1" as="geometry" />
        </mxCell>
        <mxCell id="yWa1NxkDXGBS_MJ9YXGz-16" value="начало" style="ellipse;whiteSpace=wrap;html=1;" vertex="1" parent="1">
          <mxGeometry x="350" y="70" width="120" height="80" as="geometry" />
        </mxCell>
        <mxCell id="yWa1NxkDXGBS_MJ9YXGz-19" value="Yes" style="text;html=1;strokeColor=none;fillColor=none;align=center;verticalAlign=middle;whiteSpace=wrap;rounded=0;" vertex="1" parent="1">
          <mxGeometry x="410" y="770" width="60" height="30" as="geometry" />
        </mxCell>
        <mxCell id="yWa1NxkDXGBS_MJ9YXGz-20" value="No" style="text;html=1;strokeColor=none;fillColor=none;align=center;verticalAlign=middle;whiteSpace=wrap;rounded=0;" vertex="1" parent="1">
          <mxGeometry x="290" y="655" width="60" height="30" as="geometry" />
        </mxCell>
        <mxCell id="yWa1NxkDXGBS_MJ9YXGz-23" value="" style="edgeStyle=orthogonalEdgeStyle;rounded=0;orthogonalLoop=1;jettySize=auto;html=1;" edge="1" parent="1" source="yWa1NxkDXGBS_MJ9YXGz-21" target="yWa1NxkDXGBS_MJ9YXGz-3">
          <mxGeometry relative="1" as="geometry" />
        </mxCell>
        <mxCell id="yWa1NxkDXGBS_MJ9YXGz-24" style="edgeStyle=orthogonalEdgeStyle;rounded=0;orthogonalLoop=1;jettySize=auto;html=1;entryX=0.5;entryY=0;entryDx=0;entryDy=0;" edge="1" parent="1" source="yWa1NxkDXGBS_MJ9YXGz-21" target="yWa1NxkDXGBS_MJ9YXGz-11">
          <mxGeometry relative="1" as="geometry" />
        </mxCell>
        <mxCell id="yWa1NxkDXGBS_MJ9YXGz-21" value="sizeArray &amp;gt; 0" style="rhombus;whiteSpace=wrap;html=1;" vertex="1" parent="1">
          <mxGeometry x="366" y="320" width="96" height="90" as="geometry" />
        </mxCell>
        <mxCell id="yWa1NxkDXGBS_MJ9YXGz-25" value="No" style="text;html=1;strokeColor=none;fillColor=none;align=center;verticalAlign=middle;whiteSpace=wrap;rounded=0;" vertex="1" parent="1">
          <mxGeometry x="462" y="340" width="60" height="30" as="geometry" />
        </mxCell>
        <mxCell id="yWa1NxkDXGBS_MJ9YXGz-26" value="Yes" style="text;html=1;strokeColor=none;fillColor=none;align=center;verticalAlign=middle;whiteSpace=wrap;rounded=0;" vertex="1" parent="1">
          <mxGeometry x="400" y="430" width="60" height="30" as="geometry" />
        </mxCell>
      </root>
    </mxGraphModel>
  </diagram>
</mxfile>
